<mxfile host="app.diagrams.net" modified="2024-03-03T17:15:20.686Z" agent="Mozilla/5.0 (Windows NT 10.0; Win64; x64) AppleWebKit/537.36 (KHTML, like Gecko) Chrome/122.0.0.0 Safari/537.36" etag="-kDwPexKw02o8hBg_K1T" version="24.0.1" type="device">
  <diagram name="Page-1" id="9NfTauXhI1nF-L98G7tq">
    <mxGraphModel dx="1313" dy="653" grid="1" gridSize="10" guides="1" tooltips="1" connect="1" arrows="1" fold="1" page="1" pageScale="1" pageWidth="850" pageHeight="1100" math="0" shadow="0">
      <root>
        <mxCell id="0" />
        <mxCell id="1" parent="0" />
        <mxCell id="sohQrufnVQLbH2fhh9jV-33" value="Login / Signup" style="edgeStyle=orthogonalEdgeStyle;rounded=0;orthogonalLoop=1;jettySize=auto;html=1;exitX=0.75;exitY=1;exitDx=0;exitDy=0;entryX=0;entryY=0;entryDx=0;entryDy=0;curved=1;fontSize=13;" edge="1" parent="1" source="umCjMcvU6qiy_Up5obXn-1" target="sohQrufnVQLbH2fhh9jV-27">
          <mxGeometry relative="1" as="geometry" />
        </mxCell>
        <mxCell id="umCjMcvU6qiy_Up5obXn-1" value="User" style="rounded=0;whiteSpace=wrap;html=1;fillColor=#dae8fc;strokeColor=#6c8ebf;glass=1;shadow=0;textShadow=0;gradientColor=none;opacity=80;fontStyle=1;labelBackgroundColor=none;fontSize=16;" parent="1" vertex="1">
          <mxGeometry x="120" y="580" width="140" height="70" as="geometry" />
        </mxCell>
        <mxCell id="sohQrufnVQLbH2fhh9jV-31" value="Login / Signup&amp;nbsp;" style="edgeStyle=orthogonalEdgeStyle;rounded=0;orthogonalLoop=1;jettySize=auto;html=1;exitX=0.25;exitY=1;exitDx=0;exitDy=0;entryX=1;entryY=0;entryDx=0;entryDy=0;curved=1;fontSize=13;" edge="1" parent="1" source="umCjMcvU6qiy_Up5obXn-2" target="sohQrufnVQLbH2fhh9jV-27">
          <mxGeometry relative="1" as="geometry" />
        </mxCell>
        <mxCell id="sohQrufnVQLbH2fhh9jV-32" value="Login Success /&lt;div style=&quot;font-size: 13px;&quot;&gt;Failure&lt;/div&gt;" style="edgeStyle=orthogonalEdgeStyle;rounded=0;orthogonalLoop=1;jettySize=auto;html=1;exitX=0.75;exitY=1;exitDx=0;exitDy=0;entryX=1;entryY=0.5;entryDx=0;entryDy=0;curved=1;fontSize=13;" edge="1" parent="1" source="umCjMcvU6qiy_Up5obXn-2" target="sohQrufnVQLbH2fhh9jV-27">
          <mxGeometry x="-0.4287" y="-25" relative="1" as="geometry">
            <mxPoint as="offset" />
          </mxGeometry>
        </mxCell>
        <mxCell id="sohQrufnVQLbH2fhh9jV-39" value="Crypto&amp;nbsp;&lt;div style=&quot;font-size: 13px;&quot;&gt;Investment&lt;/div&gt;" style="edgeStyle=orthogonalEdgeStyle;rounded=0;orthogonalLoop=1;jettySize=auto;html=1;exitX=1;exitY=0.75;exitDx=0;exitDy=0;entryX=1;entryY=0.5;entryDx=0;entryDy=0;fontSize=13;" edge="1" parent="1" source="umCjMcvU6qiy_Up5obXn-2" target="sohQrufnVQLbH2fhh9jV-38">
          <mxGeometry x="0.3235" relative="1" as="geometry">
            <mxPoint x="740" y="550" as="targetPoint" />
            <mxPoint as="offset" />
          </mxGeometry>
        </mxCell>
        <mxCell id="sohQrufnVQLbH2fhh9jV-40" value="Receipt" style="edgeStyle=orthogonalEdgeStyle;rounded=0;orthogonalLoop=1;jettySize=auto;html=1;exitX=1;exitY=0.25;exitDx=0;exitDy=0;entryX=1;entryY=1;entryDx=0;entryDy=0;startArrow=block;startFill=1;endArrow=none;endFill=0;fontSize=13;" edge="1" parent="1" source="umCjMcvU6qiy_Up5obXn-2" target="sohQrufnVQLbH2fhh9jV-38">
          <mxGeometry relative="1" as="geometry" />
        </mxCell>
        <mxCell id="umCjMcvU6qiy_Up5obXn-2" value="Investor" style="rounded=0;whiteSpace=wrap;html=1;fillColor=#dae8fc;strokeColor=#6c8ebf;glass=1;gradientColor=none;opacity=80;fontStyle=1;labelBackgroundColor=none;fontSize=16;" parent="1" vertex="1">
          <mxGeometry x="530" y="570" width="140" height="70" as="geometry" />
        </mxCell>
        <mxCell id="sohQrufnVQLbH2fhh9jV-42" value="&lt;font style=&quot;font-size: 13px;&quot;&gt;Verifiction / Updation&lt;/font&gt;" style="edgeStyle=orthogonalEdgeStyle;rounded=0;orthogonalLoop=1;jettySize=auto;html=1;exitX=1;exitY=0.5;exitDx=0;exitDy=0;entryX=0.5;entryY=0;entryDx=0;entryDy=0;startArrow=block;startFill=1;" edge="1" parent="1" source="umCjMcvU6qiy_Up5obXn-3" target="sohQrufnVQLbH2fhh9jV-38">
          <mxGeometry relative="1" as="geometry" />
        </mxCell>
        <mxCell id="umCjMcvU6qiy_Up5obXn-3" value="Admin" style="rounded=0;whiteSpace=wrap;html=1;fillColor=#dae8fc;strokeColor=#6c8ebf;glass=1;gradientColor=none;opacity=80;fontStyle=1;labelBackgroundColor=none;fontSize=16;" parent="1" vertex="1">
          <mxGeometry x="325" y="120" width="140" height="70" as="geometry" />
        </mxCell>
        <mxCell id="umCjMcvU6qiy_Up5obXn-4" value="Id 2:&lt;div&gt;Projects&lt;br&gt;&lt;div&gt;&lt;br&gt;&lt;/div&gt;&lt;/div&gt;" style="ellipse;whiteSpace=wrap;html=1;aspect=fixed;fillColor=#e3c800;strokeColor=#B09500;fontColor=#000000;fontSize=16;" parent="1" vertex="1">
          <mxGeometry x="340" y="310" width="110" height="110" as="geometry" />
        </mxCell>
        <mxCell id="sohQrufnVQLbH2fhh9jV-16" value="Invest Funds" style="endArrow=classic;html=1;rounded=0;exitX=0.25;exitY=0;exitDx=0;exitDy=0;entryX=1;entryY=1;entryDx=0;entryDy=0;edgeStyle=orthogonalEdgeStyle;curved=1;fontSize=13;" edge="1" parent="1" source="umCjMcvU6qiy_Up5obXn-2" target="umCjMcvU6qiy_Up5obXn-4">
          <mxGeometry x="0.0094" y="-5" width="50" height="50" relative="1" as="geometry">
            <mxPoint x="380" y="410" as="sourcePoint" />
            <mxPoint x="430" y="360" as="targetPoint" />
            <mxPoint as="offset" />
          </mxGeometry>
        </mxCell>
        <mxCell id="sohQrufnVQLbH2fhh9jV-17" value="Check Projects/&amp;nbsp;&lt;div style=&quot;font-size: 13px;&quot;&gt;Information&lt;/div&gt;" style="endArrow=classic;html=1;rounded=0;exitX=1;exitY=0.5;exitDx=0;exitDy=0;entryX=0.704;entryY=-0.067;entryDx=0;entryDy=0;entryPerimeter=0;edgeStyle=orthogonalEdgeStyle;curved=1;fontSize=13;" edge="1" parent="1" source="umCjMcvU6qiy_Up5obXn-4" target="umCjMcvU6qiy_Up5obXn-2">
          <mxGeometry x="0.2329" y="-39" width="50" height="50" relative="1" as="geometry">
            <mxPoint x="470" y="410" as="sourcePoint" />
            <mxPoint x="520" y="360" as="targetPoint" />
            <mxPoint as="offset" />
          </mxGeometry>
        </mxCell>
        <mxCell id="sohQrufnVQLbH2fhh9jV-18" value="Upload Details" style="endArrow=classic;html=1;rounded=0;exitX=0.75;exitY=0;exitDx=0;exitDy=0;entryX=0;entryY=1;entryDx=0;entryDy=0;edgeStyle=orthogonalEdgeStyle;curved=1;fontSize=13;" edge="1" parent="1" source="umCjMcvU6qiy_Up5obXn-1" target="umCjMcvU6qiy_Up5obXn-4">
          <mxGeometry width="50" height="50" relative="1" as="geometry">
            <mxPoint x="380" y="410" as="sourcePoint" />
            <mxPoint x="370" y="420" as="targetPoint" />
          </mxGeometry>
        </mxCell>
        <mxCell id="sohQrufnVQLbH2fhh9jV-19" value="Funds Needed" style="endArrow=none;html=1;rounded=0;exitX=0.25;exitY=0;exitDx=0;exitDy=0;entryX=0;entryY=0.5;entryDx=0;entryDy=0;edgeStyle=orthogonalEdgeStyle;curved=1;startArrow=block;startFill=1;endFill=0;align=left;fontSize=13;" edge="1" parent="1" source="umCjMcvU6qiy_Up5obXn-1" target="umCjMcvU6qiy_Up5obXn-4">
          <mxGeometry x="-0.15" y="-25" width="50" height="50" relative="1" as="geometry">
            <mxPoint x="290" y="430" as="sourcePoint" />
            <mxPoint x="340" y="380" as="targetPoint" />
            <mxPoint as="offset" />
          </mxGeometry>
        </mxCell>
        <mxCell id="sohQrufnVQLbH2fhh9jV-20" value="" style="shape=flexArrow;endArrow=classic;startArrow=classic;html=1;rounded=0;exitX=0.5;exitY=0;exitDx=0;exitDy=0;entryX=0.5;entryY=1;entryDx=0;entryDy=0;" edge="1" parent="1" source="umCjMcvU6qiy_Up5obXn-4" target="umCjMcvU6qiy_Up5obXn-3">
          <mxGeometry width="100" height="100" relative="1" as="geometry">
            <mxPoint x="330" y="290" as="sourcePoint" />
            <mxPoint x="430" y="190" as="targetPoint" />
          </mxGeometry>
        </mxCell>
        <mxCell id="sohQrufnVQLbH2fhh9jV-21" value="DataBase" style="html=1;dashed=0;whiteSpace=wrap;shape=partialRectangle;right=0;" vertex="1" parent="1">
          <mxGeometry x="80" y="135" width="110" height="40" as="geometry" />
        </mxCell>
        <mxCell id="sohQrufnVQLbH2fhh9jV-22" value="" style="shape=flexArrow;endArrow=classic;startArrow=classic;html=1;rounded=0;exitX=1;exitY=0.5;exitDx=0;exitDy=0;" edge="1" parent="1" source="sohQrufnVQLbH2fhh9jV-21">
          <mxGeometry width="100" height="100" relative="1" as="geometry">
            <mxPoint x="225" y="260" as="sourcePoint" />
            <mxPoint x="330" y="155" as="targetPoint" />
          </mxGeometry>
        </mxCell>
        <mxCell id="sohQrufnVQLbH2fhh9jV-24" value="Approve/Reject" style="whiteSpace=wrap;html=1;strokeColor=none;opacity=0;fontSize=14;" vertex="1" parent="1">
          <mxGeometry x="290" y="250" width="100" height="40" as="geometry" />
        </mxCell>
        <mxCell id="sohQrufnVQLbH2fhh9jV-25" value="Update/Check" style="whiteSpace=wrap;html=1;strokeColor=none;opacity=0;fontSize=14;" vertex="1" parent="1">
          <mxGeometry x="210" y="100" width="100" height="40" as="geometry" />
        </mxCell>
        <mxCell id="sohQrufnVQLbH2fhh9jV-26" value="Level 1" style="text;strokeColor=none;fillColor=none;html=1;fontSize=24;fontStyle=1;verticalAlign=middle;align=center;" vertex="1" parent="1">
          <mxGeometry x="350" y="10" width="100" height="40" as="geometry" />
        </mxCell>
        <mxCell id="sohQrufnVQLbH2fhh9jV-36" value="&lt;font style=&quot;font-size: 14px;&quot;&gt;Check Details&lt;/font&gt;" style="edgeStyle=orthogonalEdgeStyle;rounded=0;orthogonalLoop=1;jettySize=auto;html=1;exitX=0.5;exitY=1;exitDx=0;exitDy=0;entryX=0;entryY=0.5;entryDx=0;entryDy=0;startArrow=classic;startFill=1;strokeWidth=1;" edge="1" parent="1" source="sohQrufnVQLbH2fhh9jV-27" target="sohQrufnVQLbH2fhh9jV-21">
          <mxGeometry x="0.4011" y="10" relative="1" as="geometry">
            <mxPoint as="offset" />
          </mxGeometry>
        </mxCell>
        <mxCell id="sohQrufnVQLbH2fhh9jV-27" value="Id 1:&lt;div style=&quot;font-size: 15px;&quot;&gt;Registration/&lt;/div&gt;&lt;div style=&quot;font-size: 15px;&quot;&gt;Signup&lt;/div&gt;" style="ellipse;whiteSpace=wrap;html=1;fontSize=15;fillColor=#d5e8d4;strokeColor=#82b366;" vertex="1" parent="1">
          <mxGeometry x="350" y="750" width="120" height="80" as="geometry" />
        </mxCell>
        <mxCell id="sohQrufnVQLbH2fhh9jV-29" value="Login Success/&amp;nbsp;&lt;div style=&quot;font-size: 13px;&quot;&gt;Failure&lt;/div&gt;" style="endArrow=classic;html=1;rounded=0;entryX=0.25;entryY=1;entryDx=0;entryDy=0;edgeStyle=orthogonalEdgeStyle;curved=1;fontSize=13;" edge="1" parent="1" target="umCjMcvU6qiy_Up5obXn-1">
          <mxGeometry x="0.4074" y="-35" width="50" height="50" relative="1" as="geometry">
            <mxPoint x="350" y="792" as="sourcePoint" />
            <mxPoint x="152.43" y="680" as="targetPoint" />
            <mxPoint as="offset" />
          </mxGeometry>
        </mxCell>
        <mxCell id="sohQrufnVQLbH2fhh9jV-34" value="" style="shape=image;verticalLabelPosition=bottom;labelBackgroundColor=default;verticalAlign=top;aspect=fixed;imageAspect=0;image=data:image/png,iVBORw0KGgoAAAANSUhEUgAAAIAAAACACAMAAAD04JH5AAAC/VBMVEUAAACZUeRbaPWySuGEWexkYvOPVOj2pBt4XO5ga/NfY/RtX/GBWOzJQNnEQtVgZPNabvXsP71vX/DdOdJ5W+56XO3DQ9qbUea3R91vX/B6W+1oYPKlTeOPVemtS+DRPtVfZPRjYvN5XO88qfxeZvPWPNNYa/Q/oPngONGNVeqeUOXUPdVdZfX1oSFRcvfWPNM+o/zxoh9Offj1oR+NVenMP9daZvWgTuNKhfrMP9eYUuc+pPuSVOeWUudTbfY7qvzqOcfzjUD1mS3CQ9pBn/uQVOmKV+vwZYF+Wu3vYYbqOsfvYoPvW418W+5ElvvtQ7ahT+TuTqVHjPpZavWVUujjOdD0mC7oO8e9RtzsP7/vnxbvYIdElfvtUaLtSK6LV+vrNc/iONF4XO/mNtBQdff2oh7tUp3weV9/WuzIQdm1R96gT+S3RdrfONLuT6PxdWbvXJC3R9zvYIjwZIPvY4J0Xe9wXvCCWex4XO5rYPFtX/F9W+2LVupcZPRmYfK2R96JV+urS+GxSd+gT+S8RdyGWOvMQNiHWOvARNvDQ9pfY/SAWu3HQdmmTeKvSuCkTuN+Wu2oTOJiY/PiONFYZfWEWexoYfJ2XO96W+6OVem6Rt3lN9BkYvNyXvBZZfXPP9eTVOjaO9TnNtBOevh7W+7fOdJJiPlGj/qWUuebUebUPdXdOtNNf/jXPNSQVenrNc6dUOXSPtZKhflWZvaZUuZRc/dpYPLJQdlFkvpVafZLg/lNfPjFQtpScPdElvtUa/aVU+ieUOVBnftCmvtQdfdTbvezSN9HjPpIivq4R94+pvxPd/juTqU/ovy+Rdy0SN/tRrKiT+TwYoVMgfmtS+HsO8RAoPzvXY5FlPo8qf3vVpnwZYDwaXrzhU7uU57vWpLyfVrzgVTuSqz0iEj0jELydmTtQ7fxbnHyel/xcW31lzBaZPXwX4r1myrsN8vxbHbydGn0jzz2nyPvWJXuTKn0kjmFWOzvUaD1lDU7rf3sOMjtQrntP73tPr+YUufq6wTTAAAAdXRSTlMAHyAfv7/+/sAQ36AfHxBgL/6/o4BAwL+/UKB/wb+/gI/v35hwRz8fgC/vv5+af19eJ+Xj39/HpJ+ff3ZgRei9omNIPz3PpYJwQh8fEO/p5t/Pw7CPj31vaS8Q4494V+/v39DFv7+fmpCPf3Aw7+/X786/v68WmiLDAAAPEElEQVR42u2ad1yWVRTHH95A5YV4KSQDFzKDCA0ZgqhlamVq7pHtvbeAIY6UnCWaoFkpmQrmKFcYlqYNTTOzabb3Xla2+3TXuefe+9z3jRf60/tfvE9+z++cc8+95zyPc3QdXUdXY9Z5vU8fecpVI0/vfU5jno5KGX1NQcG1o8+I+p/oI6/49qtffvzk43c/+OLTm676Dxuu75hbP2fOkzNnzHhp2uJbRh/TbPypVxw+zPjvvvvhF5/+8Pn379wWwIQzTr7rLsKfyfkvTNr/fP4xzVN/SsuWnP8x43/5/Ttvf/PmlX5MiCpYqvMnPX/nPfdc2xz5XVselvwPOP+VN386NGSMVX4u4Qv/T5P8KVMGhzSZ3xL1I//9Q7+++NEo99Od16v6kT/v7ozrm8w/7If/8p8uCzpa+Hcy/t1zp/b4P/W/R/if/fX6hfrTKett/n+N8Q9MzUhvSvwD8r+7uL/69LG5S5cq/MWTJu0nfKF/6o7HBgdfE04JzH902WXq0yeD/pnof4W/atPwoB0QgH8c5S+7v7OSgJRfL/QD/zXkr6qrCzYNrtD5nxv8R5fdf/8l+HQu6HfxDzD9dXU17YPj91b4X5j6/2D8e+/tLB2g+n+xm7+p7umadT2CywDC/w34mv6/JH/FyfA0KcCy/tMCbMS/jvBb3BdcFnS18DH+nL96dZTYAoxv5t88qh/5910U1BFg5f8s/A/8hzpDBOol/wWof2r8KX/ChNjGn79d7Xyx/4gD7l1B+Wuvcdi6Bvxvy79/BH/y5OmhjTOhd1dX/L8BvqZ/7VqRBCcI/jRafzh/npZ/VP/k6RUVFfGRjSlACv9TyUf/LxP8h9Y+AgZw/xMHCP0drssn/Klk/7P4r2N8YkBVSWJc0/lDTmMrRq6Cgo7CAL7/CZ/rH0z+1o7x/5H6JzN+Scnss5rKv8D2OBjA9x/EP5/8rXAq838N6j/C+LMrA1ow0sb/ifDPvdAJYIAR/3bkb0V6/EF/ZWVZWWzg+mfn93cCGSD4ZANOoRuQGtCD81tw/1P9VYK/PDHcf/nxwx8ygP465iRYHcXqLAww8j+D/C2E8PX4Vwn+otIIf/zTKf8Xyf8e+FeyX0ep+f/I+qXkADzBYetEfgHG/UcvgRmUz+JPA8DjX8b4pQtj/TkA+Lp+nn4j3Px6MECeP1MIf+7UHUXkj8MJvwXEX+QfwRN+6cJWfjLApf/mCwY4Y85mN+7LZP1B/hwwgMYf+AdIAcqnSQD6Mf/LmAELx40bF27fgiZ/rLz/97/EpZ/Wf2kAxp8dgBn0lGrP858YoMa/lBnQ1h4Bg/+m3HopF3P9Kyh/reTPBANUPtv/hTQNL2L8igrIfx5/yn/weOslzOT/BL+MEfV3BeiHCzgYAPFn9fexVW2uY5eP9Iuo/1kAUD/jFxeH21IA+LQBpPwhMgA2/bT+gwHAp/7PKJQX4PQcyH+TX+yxbUKD/96NAyACpn44/0/kv3dQ9PdV+7DIfjz+s03+HXE2Awz+rz9DDsSo/PWSP2MaGID6841/NPLqRL7/dP4dPpsBJv8jUYBHWfQ/yc5fMIDXH8IvZP8dUtg3p2+/WAhEUfzAMoM/3mqAyj9E+C//eW7nMVEpI0gCoH7IP9YAgAHzVP3hw8X+7ydvH7HIf5DwiQFxtl2g6mcN6N/sAib0r1X0wwUMDID9H0Ll92X1jxUgeQEy+eNtxXgA579t8N36sQESBrQT/FVRhJ8j6u90tv9Di6gNcbr/xz/+uLUU3gT8Qwpf3X96A07qLxgg+JvapKf3Xcf1Q/0vq7w0Pn6gzh9f7XVs66rG86fx868DGMD49Pyt4fcf2/5H/uPV9gP5bDvf9D8OoO4EA4BPD2Dt/K2kB7Aef8qf6OdqqvJFA6rXP/T/Ynb+gQHI5w0Arf+Cv2iRhe917OvMVwLohwEEv3+zAQQY0Eb4H/jTzfq3UPN/9USfYw/BrTof9Zv5v1ic/2CA1C/8X1FCluSXsvijfj8OGHD7NzCAMv3v3n+iAW4nDOAN4DqRgOh/EgDMv2LOJwHwWOWPfcXGX23hYwMMBjA+wVMHkPOX3z8ql5v+5/o7RTtkJXuM8GsDIGgA/fkfBkBgAMZ/stTPLoBG/iE/epY32s3/FfmB4o8NOBog9OP9sxL3/zg33+MtL+/kaxQf899swOfNnQsGyAaA8qkDEuNi4+ECRvRj/ud5gF/+dc9oGX+dvwziD/WHHUCw/9UBRBuHrfayAYf8j6VHYCs9/uOrqzvxy2h4HuEvWbIAsnHAWPsARq+/OIDBASgYwP2PDaBo/yLjB/L8F/kXQYCgn/AXbMwTAQjIX4oDuGm8AcEBDBiADbCI/6VwDsdFXMod0CksWZyA0ZL/xHaWBudg/pv8R7T6D/UPByBggNqA8/tXotKER8bGRuOmS541S/K39wynDkD96v5/CPxfbx8A0gYADID6w/n8Apjos41jUsMo/+slSwj/ie3PPUVdMNbk3xBzUswlcAGifMx/YwAkDUA+c4DY/xGxNjzhc/2Ev/lysgXMAVxMFB39xeAFDOuvOQBsLwxQ80/wqQHFxYkRPqw3Cd5ZZAk+MYDwNz/rcS4wBrCXwfST8G0D0Cnc/zsIHwwIZXytAaL1B/afNywsgebj/PlM/xLwP+XvTXauNAZgKfAG6lhcx2grBBcYQPEwAFDqfzHUH2pAAuGL/EP+w92cIcYA1Al+hRL9WP/N848W4GTyVBj3/9cLFixg/Kcof+tQ50ZjABvVFANKqkA/9T/UP8l/wEcNYPnHHQD6t67JdswB5BkYAqv3cUVGhgsDIP/KFmH9B/0TCZ8Z4IX8V/lrGhxzAA0z+Nx6cwCO+3/TP3wACkmI/EWoXxxAlM89wPRz/nPM/w+vWfPqBsc1gC04lr0E5fUXB4A4gKAbkA+ApAGzS3AAoZ7/nD9/Pj2EMql+XgBQf8MG51zK1+pvbkzHgjn1Oh8HUDuQPyEUDMD9h/5n5x8NANl+mbQGlxvx37rm1YYN2c5pun6oP+B/4OMAZJPkTwYD1AGMfgGmfGKAlx7ClP+EwV851Blh489x8edB/aH64f4JBlC8uwFi8gmf7n8PzUKRfzz+nL/7fCfF1gBb438AGiAYQKMBRL70P+pHfjmpRB7hf8y/DStX7urjRF3sZwAzw4y/1F8D5z8YAPHXGmARf1H/MhO8G3V+A+UPIv87G0CsDqD/HmUAB/pZAwYGtML8lxuwGgLA+OVi/20H/zP9u3fVdqMjKGyA3fpxACz3X00LOQAGA7AAa/7nfCiAbP9vFvyGBsrfVZvGZlBuvn3/g37ZAIMBrvzT/I/17zkt/3bXEgfQ1f8Gy/7jBdBSf8D/hC8NwAYY9j/yof4DH/XX1g5K4//AKH0ACvz9Ch8bcNSPBlj1P4B8ff/x/Cf8Ld0dsUYoF3DUz/JvCuQf4/P6IxsgMCCA/3kAgP8s+J/xz1de/+MAEvVL/gFjAMP41IBWwgB/+VfO+Rh/yd9N+EMdXFEx+gDIzif6xQDkCB9AgAH6/q9G/+MFXOPTBNjSTZ+UdTT44P+7Zf6hfmhAysAAfQCh8eH8N/ngf1wpuTCAhReQqN+V/5yPBuABrOvX999W9P+gPra3b6jf8ga8BeoH/nJhwPGK/mqIv7n/nlXjP9Q6qMw1voBS9h91AAxgkb9IGgD8BE+y1I8NCPDR/4Ns/CjUr/HNAViV5JeCAZD/YeQ/2s7/7/w7eDDN9ikY1H8LH+vPEYUvDQD/UwPCvRo/L8EX7fF4klX+loPboi0GpID/Mf8zCkOc9HzUr/lfMUDG38Paf8nvmSVj3U3jP9PFYsBoPoDaj3zxGVwRSUAYQOkNIBog6k8YG0Bk8vh7GR4MIPwNu4FvN8D1BVSR+KUfH8BR/cDn5x8YgPtPzGBSfb44j9YXryH8lZK/02ZAiuBj/YNfeugDOGyAjxcGMP1kiQu4Rs66PJtewFX/79z5hq0MXG9+ATYYfgnhfGzA4fwHA9T6k+lR8Zdv3rtX4ddy/W/ssyVhlPkFTAa0iekTcACM+tGAML3+ZqbCP5klGhDwf63Qv2+fY1snmvVPfnwVlzP9yBFsAEvhAggGqPWXFeA8H5tIkPqzV56/dP9z/W/s62U14FrgwxcwOSFyzpRTgfsPB7BggNCP9c/rYfqZ/7e+2tCA/mcO2JNk/yZX8T//AiaHvHKKjOTvQIkDgA8DCDTAPH+z6G7EBlCLP+HvSXOsq4PKr5MHIJ+4teb+X4760QDK1wYw1AGZ2IBq+Uf4GAHDBeQCiPprCJ/Xv9bs17NQPwygwQCNT87fYdQBwMf9v03of8tWBeANJMRfvQBUhbIwpLdWVlu6fGAAxp8NYHy09AEf/Q98dIC5jskQfPIFEvAr2BdYAb8BC9MbgO3baQSyRf6D/1H/W2n+/6nrGN/8Aonc/wbGBTaA4HEA1pNOhOn5Cw3YFo3fPZCY4TsYv0b5AqiE53/rQAZw/8MAjk6AsyD/kL+T85OcgCtf8FtA/OELlOWt4tmKUFayMAD4G8UAalhqVjbqr5X8fcAPtArrDP9XifoHA1BlABMGBoD/jQGM4G/jfPR/4FWUI/Tj+aO9AVVewAkDhoEBMIBk9c8W/z1dnEaskH4q39BfrPAnJogpNPTf2ACo9Qf1J1ny325CX37/0PnuBkxsDR+vfxv96H9GxN/oBQInAtOPLwCWwwAe+Pz8E1eucJr/5gDGnX9JTuNXOjSgxgBeHwANg8fz9AbIxYf6E8QK1fig3xgAyuKUukAfwOD+O4j8Xk4wK1bj2wcQXnw8T/of9e/i9R/4v3cJcgTP4m/RjwMIpTqnIl8MYHaD/4HfywluRQ7k9Y/y7QOwTPXxYTgAp/yVwGcXAMr/Pc0Jcp1l9T/q178CCO/J+WT/Qf3nF1Dgd3eCXldbB9DVQn8nxscV3VMZwDEDtqn8JKcJKx71uwbw9C28YUE28A3/70F+0D6gBdCmH/iGBXABhwLYVP24Wru/AGD3zzyP7WlPNjYAzYw/7oXEceYAishv6+/xLDEA3KLmf68+TnOWL1HVT/idoPmzrbRusgGFC2gXp7krNiIR/Q9fAfg3ocvQg9gAJDVPPeZXXNuEiIi2yamB6FgT+nTvnpR0fvcuac7RdXQdXY1Y/wIujfZsvCS7WQAAAABJRU5ErkJggg==;" vertex="1" parent="1">
          <mxGeometry x="990" y="920" width="128" height="128" as="geometry" />
        </mxCell>
        <mxCell id="sohQrufnVQLbH2fhh9jV-45" value="&lt;font style=&quot;font-size: 13px;&quot;&gt;Funds Transfer&lt;/font&gt;" style="edgeStyle=orthogonalEdgeStyle;rounded=0;orthogonalLoop=1;jettySize=auto;html=1;exitX=0;exitY=0.5;exitDx=0;exitDy=0;entryX=0;entryY=0.5;entryDx=0;entryDy=0;" edge="1" parent="1" source="sohQrufnVQLbH2fhh9jV-38" target="umCjMcvU6qiy_Up5obXn-1">
          <mxGeometry x="-0.07" relative="1" as="geometry">
            <mxPoint x="1" as="offset" />
          </mxGeometry>
        </mxCell>
        <mxCell id="sohQrufnVQLbH2fhh9jV-38" value="&lt;font style=&quot;font-size: 16px;&quot;&gt;Id 3:&lt;/font&gt;&lt;div style=&quot;font-size: 16px;&quot;&gt;&lt;font style=&quot;font-size: 16px;&quot;&gt;Funds&lt;/font&gt;&lt;/div&gt;" style="ellipse;whiteSpace=wrap;html=1;fillColor=#fff2cc;strokeColor=#d6b656;" vertex="1" parent="1">
          <mxGeometry x="630" y="200" width="120" height="80" as="geometry" />
        </mxCell>
      </root>
    </mxGraphModel>
  </diagram>
</mxfile>
